<svg width="952" height="756" viewBox="0 0 952 756" fill="none" xmlns="http://www.w3.org/2000/svg">
<path d="M15.3235 382.923C41.1345 457.775 239.881 641.035 294.084 687.495C348.287 733.955 427.256 766.481 526.385 752.023C625.514 737.564 725.648 630.936 738.037 558.439C750.426 485.942 737.866 402.784 691.576 328.72C652.859 266.773 425.72 47.3789 392.166 31.8917C358.613 16.4044 294.084 -9.40587 226.975 3.49958C159.866 16.405 146.961 26.7289 95.339 60.2834C43.7168 93.8379 17.9053 171.271 10.1621 199.664C2.41896 228.056 -10.4875 308.07 15.3235 382.923Z" fill="#B3E9E3"/>
<path d="M936.108 382.923C910.297 457.775 676.252 671.09 657.347 687.495C638.442 703.899 598.819 735.1 544.615 748.524C509.643 757.185 467.941 758.279 425.046 752.023C325.918 737.564 225.784 630.936 213.395 558.439C201.005 485.942 213.565 402.784 259.855 328.72C298.572 266.773 525.711 47.3789 559.265 31.8917C592.819 16.4044 657.347 -9.40587 724.456 3.49958C791.565 16.405 804.47 26.7289 856.092 60.2834C907.714 93.8379 933.526 171.271 941.269 199.664C949.012 228.056 961.919 308.07 936.108 382.923Z" fill="#3B88D4"/>
<path d="M936.108 382.923C910.297 457.775 674.508 670.172 655.603 686.577L694.32 645.279L720.131 609.143L738.199 565.265L743.361 521.385V474.925L735.618 428.465L714.969 371.681L686.577 320.058L609.143 229.719L475.87 101.466C515.679 64.6237 548.13 37.0309 559.265 31.8917C592.819 16.4044 657.347 -9.40587 724.456 3.49958C791.565 16.405 804.47 26.7289 856.092 60.2834C907.714 93.8379 933.526 171.271 941.269 199.664C949.012 228.056 961.919 308.07 936.108 382.923Z" fill="#0679C0"/>
</svg>
