<svg width="52" height="40" viewBox="0 0 52 40" fill="none" xmlns="http://www.w3.org/2000/svg">
<g clip-path="url(#clip0_74_31)">
<path d="M0.836998 20.2605C2.24684 24.2209 13.1027 33.9172 16.0634 36.3754C19.0241 38.8336 23.3375 40.5546 28.7521 39.7896C34.1667 39.0246 39.6362 33.3829 40.313 29.547C40.9897 25.7112 40.3036 21.3113 37.7752 17.3926C35.6604 14.115 23.2536 2.50682 21.4208 1.68739C19.5881 0.867958 16.0634 -0.497665 12.3978 0.185163C8.73218 0.86799 8.02728 1.41423 5.20759 3.1896C2.38789 4.96497 0.978021 9.06196 0.555073 10.5642C0.132128 12.0665 -0.572847 16.3 0.836998 20.2605Z" fill="#B3E9E3"/>
<path d="M51.132 20.2605C49.7221 24.2209 36.9382 35.5074 35.9055 36.3754C34.8729 37.2433 32.7086 38.8942 29.7479 39.6045C27.8377 40.0627 25.5598 40.1206 23.2168 39.7896C17.8023 39.0246 12.3328 33.3829 11.656 29.547C10.9793 25.7112 11.6653 21.3113 14.1938 17.3926C16.3086 14.115 28.7153 2.50682 30.5481 1.68739C32.3809 0.867958 35.9055 -0.497665 39.5711 0.185163C43.2368 0.86799 43.9417 1.41423 46.7613 3.1896C49.581 4.96497 50.9909 9.06196 51.4139 10.5642C51.8368 12.0665 52.5418 16.3 51.132 20.2605Z" fill="#3B88D4"/>
<path d="M51.132 20.2605C49.7221 24.2209 36.8429 35.4588 35.8103 36.3268L37.9251 34.1417L39.3349 32.2298L40.3218 29.9082L40.6038 27.5865V25.1283L40.1808 22.6701L39.0529 19.6657L37.5021 16.9343L33.2725 12.1544L25.9929 5.36857C28.1674 3.41924 29.9399 1.95931 30.5481 1.68739C32.3809 0.867958 35.9055 -0.497665 39.5711 0.185163C43.2368 0.86799 43.9417 1.41423 46.7613 3.1896C49.581 4.96497 50.9909 9.06196 51.4139 10.5642C51.8368 12.0665 52.5418 16.3 51.132 20.2605Z" fill="#0679C0"/>
</g>
<defs>
<clipPath id="clip0_74_31">
<rect width="52" height="40" fill="white"/>
</clipPath>
</defs>
</svg>
